<svg version="1.1" xmlns="http://www.w3.org/2000/svg" viewBox="0 0 617.663037309573 439.5447849218759" width="617.663037309573" height="439.5447849218759" filter="invert(93%) hue-rotate(180deg)">
  <!-- svg-source:excalidraw -->
  
  <defs>
    <style class="style-fonts">
      @font-face {
        font-family: "Virgil";
        src: url("https://excalidraw.com/Virgil.woff2");
      }
      @font-face {
        font-family: "Cascadia";
        src: url("https://excalidraw.com/Cascadia.woff2");
      }
    </style>
    
  </defs>
  <rect x="0" y="0" width="617.663037309573" height="439.5447849218759" fill="#ffffff"></rect><g stroke-linecap="round" transform="translate(10 10) rotate(0 298.8315186547865 209.77239246093794)"><path d="M-1.23 1.08 L595.78 -1.58 L599.51 420.44 L1.15 418.91" stroke="none" stroke-width="0" fill="#eeeeee"></path><path d="M-0.52 0.21 C215.6 -0.62, 431.79 -0.15, 598.25 0.14 M0.34 -0.2 C144.73 -0.84, 290.35 -0.69, 597.31 0.22 M597.05 -0.63 C597.52 126.94, 596.18 255.53, 596.85 420.4 M597.61 -0.05 C597.42 124.96, 597.47 250.82, 597.48 419.92 M597.71 418.88 C384.33 419.66, 171.01 419.79, -0.53 419.6 M597.49 419.62 C412.35 420.31, 226.72 419.52, 0.24 419.22 M0.43 418.69 C-2.04 259.88, -1.71 99.46, 1.06 -1.04 M-0.37 419.18 C1.54 253.67, 1.05 87.96, -0.38 -0.41" stroke="#000000" stroke-width="1" fill="none"></path></g><g stroke-linecap="round" transform="translate(282.31622476384723 18.946913484620268) rotate(0 32.2305761824785 32.199712367130076)"><path d="M0 0 C0 0, 0 0, 0 0 M0 0 C0 0, 0 0, 0 0 M0.13 12.04 C3.8 7.83, 7.46 3.62, 10.63 -0.03 M0.13 12.04 C4.25 7.31, 8.36 2.57, 10.63 -0.03 M0.27 24.08 C6.82 16.54, 13.38 8.99, 21.26 -0.07 M0.27 24.08 C7.33 15.96, 14.39 7.84, 21.26 -0.07 M-0.26 36.88 C8.67 26.61, 17.6 16.33, 31.89 -0.1 M-0.26 36.88 C9.6 25.54, 19.45 14.2, 31.89 -0.1 M-0.12 48.92 C13.16 33.63, 26.45 18.35, 42.52 -0.14 M-0.12 48.92 C11.01 36.11, 22.15 23.29, 42.52 -0.14 M0.01 60.96 C16.53 41.95, 33.06 22.94, 53.15 -0.17 M0.01 60.96 C12.2 46.94, 24.38 32.92, 53.15 -0.17 M4.08 68.47 C20.54 49.53, 37 30.6, 63.78 -0.21 M4.08 68.47 C21.34 48.62, 38.6 28.76, 63.78 -0.21 M14.71 68.44 C30.16 50.67, 45.61 32.89, 69.82 5.04 M14.71 68.44 C28.25 52.86, 41.79 37.28, 69.82 5.04 M25.34 68.4 C40.75 50.67, 56.16 32.94, 69.95 17.08 M25.34 68.4 C34.69 57.65, 44.04 46.89, 69.95 17.08 M35.97 68.37 C43.14 60.12, 50.31 51.87, 70.08 29.12 M35.97 68.37 C45.32 57.61, 54.68 46.84, 70.08 29.12 M46.6 68.33 C51.41 62.8, 56.22 57.27, 70.22 41.16 M46.6 68.33 C53.56 60.32, 60.53 52.31, 70.22 41.16 M57.23 68.3 C59.93 65.19, 62.64 62.08, 69.69 53.96 M57.23 68.3 C61.79 63.05, 66.35 57.8, 69.69 53.96 M-0.19 64.24 C-0.19 64.24, -0.19 64.24, -0.19 64.24 M-0.19 64.24 C-0.19 64.24, -0.19 64.24, -0.19 64.24 M11.85 64.1 C9.33 61.91, 6.81 59.72, -0.22 53.61 M11.85 64.1 C9.38 61.95, 6.9 59.8, -0.22 53.61 M24.65 64.63 C16.5 57.55, 8.36 50.47, -0.26 42.98 M24.65 64.63 C18.1 58.93, 11.55 53.24, -0.26 42.98 M36.69 64.49 C22.37 52.05, 8.05 39.6, -0.29 32.35 M36.69 64.49 C28.99 57.8, 21.29 51.11, -0.29 32.35 M48.73 64.36 C30.64 48.63, 12.55 32.91, -0.33 21.72 M48.73 64.36 C38.69 55.63, 28.65 46.91, -0.33 21.72 M60.77 64.23 C39.71 45.92, 18.65 27.61, -0.36 11.09 M60.77 64.23 C47.01 52.27, 33.26 40.31, -0.36 11.09 M68.28 60.16 C44.38 39.37, 20.47 18.59, 0.36 1.11 M68.28 60.16 C52.77 46.67, 37.27 33.19, 0.36 1.11 M68.25 49.53 C45.04 29.36, 21.84 9.18, 4.85 -5.58 M68.25 49.53 C53.16 36.41, 38.06 23.29, 4.85 -5.58 M68.21 38.9 C49.21 22.38, 30.21 5.86, 16.89 -5.72 M68.21 38.9 C51.77 24.6, 35.32 10.3, 16.89 -5.72 M68.18 28.27 C55.26 17.04, 42.35 5.81, 28.93 -5.85 M68.18 28.27 C57.88 19.31, 47.57 10.35, 28.93 -5.85 M68.15 17.64 C61.29 11.68, 54.43 5.71, 41.73 -5.33 M68.15 17.64 C58.89 9.59, 49.64 1.55, 41.73 -5.33 M68.11 7.01 C65.2 4.47, 62.28 1.94, 53.77 -5.46 M68.11 7.01 C64.58 3.93, 61.04 0.86, 53.77 -5.46" stroke="#ced4da" stroke-width="1" fill="none"></path><path d="M0 0 C21.36 0, 42.72 0, 64.46 0 M0 0 C14.66 0, 29.32 0, 64.46 0 M64.46 0 C64.46 15.24, 64.46 30.48, 64.46 64.4 M64.46 0 C64.46 13.45, 64.46 26.9, 64.46 64.4 M64.46 64.4 C41.42 64.4, 18.38 64.4, 0 64.4 M64.46 64.4 C48.23 64.4, 31.99 64.4, 0 64.4 M0 64.4 C0 39.65, 0 14.89, 0 0 M0 64.4 C0 42.97, 0 21.55, 0 0" stroke="#000000" stroke-width="2" fill="none"></path></g><g stroke-linecap="round"><g transform="translate(297.4586888421695 54.30086014530036) rotate(0 17.437667994946707 3.1642749065755424)" fill-rule="evenodd"><path d="M0 0 L31.42 -0.67 L32.87 -1.35 L31.55 -6.47 L32.31 -9.51 L33.65 -11.34 L36.89 -6.8 L36.45 -3.14 L41.67 -6.72 L44.19 -6.4 L45.75 -5.22 L43.33 -1.94 L37.99 0.58 L28.44 11.96 L24.06 14.93 L11.93 17.54 L5.47 17.55 L0.17 16.44 L-3.92 13.47 L-7.3 8.98 L-10.87 1.11 L-10.24 -0.32 L-0.29 -0.02" stroke="none" stroke-width="0" fill="#0091e2" fill-rule="evenodd"></path><path d="M0 0 C4.42 -0.09, 21.02 -0.33, 26.5 -0.56 C31.98 -0.78, 32.03 -0.37, 32.87 -1.35 C33.71 -2.34, 31.42 -4.81, 31.55 -6.47 C31.68 -8.14, 32.76 -11.29, 33.65 -11.34 C34.54 -11.39, 36.42 -8.16, 36.89 -6.8 C37.35 -5.43, 35.65 -3.16, 36.45 -3.14 C37.25 -3.13, 40.12 -6.37, 41.67 -6.72 C43.22 -7.06, 45.48 -6.02, 45.75 -5.22 C46.03 -4.43, 44.62 -2.91, 43.33 -1.94 C42.03 -0.97, 41.2 -2.23, 37.99 0.58 C34.78 3.4, 30.36 12.28, 24.06 14.93 C17.75 17.57, 5.99 18.74, 0.17 16.44 C-5.65 14.14, -10.24 3.95, -10.87 1.11 C-11.49 -1.72, -5.35 -0.41, -3.58 -0.6 C-1.82 -0.79, -0.84 -0.12, -0.29 -0.02 M0 0 C4.42 -0.09, 21.02 -0.33, 26.5 -0.56 C31.98 -0.78, 32.03 -0.37, 32.87 -1.35 C33.71 -2.34, 31.42 -4.81, 31.55 -6.47 C31.68 -8.14, 32.76 -11.29, 33.65 -11.34 C34.54 -11.39, 36.42 -8.16, 36.89 -6.8 C37.35 -5.43, 35.65 -3.16, 36.45 -3.14 C37.25 -3.13, 40.12 -6.37, 41.67 -6.72 C43.22 -7.06, 45.48 -6.02, 45.75 -5.22 C46.03 -4.43, 44.62 -2.91, 43.33 -1.94 C42.03 -0.97, 41.2 -2.23, 37.99 0.58 C34.78 3.4, 30.36 12.28, 24.06 14.93 C17.75 17.57, 5.99 18.74, 0.17 16.44 C-5.65 14.14, -10.24 3.95, -10.87 1.11 C-11.49 -1.72, -5.35 -0.41, -3.58 -0.6 C-1.82 -0.79, -0.84 -0.12, -0.29 -0.02" stroke="#0091e2" stroke-width="2" fill="none"></path></g></g><mask></mask><g stroke-linecap="round" transform="translate(291.17373015514 46.4886221725352) rotate(0 2.783176247165045 2.7831762471650165)"><path d="M0 0 L5.57 0 L5.57 5.57 L0 5.57" stroke="none" stroke-width="0" fill="#0091e2"></path><path d="M0 0 C1.19 0, 2.38 0, 5.57 0 M0 0 C1.97 0, 3.95 0, 5.57 0 M5.57 0 C5.57 1.56, 5.57 3.12, 5.57 5.57 M5.57 0 C5.57 2.09, 5.57 4.18, 5.57 5.57 M5.57 5.57 C3.43 5.57, 1.29 5.57, 0 5.57 M5.57 5.57 C3.39 5.57, 1.22 5.57, 0 5.57 M0 5.57 C0 4.36, 0 3.15, 0 0 M0 5.57 C0 3.71, 0 1.85, 0 0" stroke="#0091e2" stroke-width="2" fill="none"></path></g><g stroke-linecap="round" transform="translate(298.13166882660767 46.23350186806613) rotate(0 2.783176247165045 2.7831762471650165)"><path d="M0 0 L5.57 0 L5.57 5.57 L0 5.57" stroke="none" stroke-width="0" fill="#0091e2"></path><path d="M0 0 C1.65 0, 3.3 0, 5.57 0 M0 0 C2.08 0, 4.16 0, 5.57 0 M5.57 0 C5.57 1.28, 5.57 2.55, 5.57 5.57 M5.57 0 C5.57 1.22, 5.57 2.45, 5.57 5.57 M5.57 5.57 C4.02 5.57, 2.47 5.57, 0 5.57 M5.57 5.57 C4.43 5.57, 3.29 5.57, 0 5.57 M0 5.57 C0 4.15, 0 2.74, 0 0 M0 5.57 C0 3.36, 0 1.15, 0 0" stroke="#0091e2" stroke-width="2" fill="none"></path></g><g stroke-linecap="round" transform="translate(305.4143053596051 46.349455379758524) rotate(0 2.783176247165045 2.7831762471650165)"><path d="M0 0 L5.57 0 L5.57 5.57 L0 5.57" stroke="none" stroke-width="0" fill="#0091e2"></path><path d="M0 0 C1.43 0, 2.85 0, 5.57 0 M0 0 C1.18 0, 2.36 0, 5.57 0 M5.57 0 C5.57 1.42, 5.57 2.84, 5.57 5.57 M5.57 0 C5.57 2.14, 5.57 4.28, 5.57 5.57 M5.57 5.57 C4.2 5.57, 2.83 5.57, 0 5.57 M5.57 5.57 C4.42 5.57, 3.28 5.57, 0 5.57 M0 5.57 C0 3.85, 0 2.14, 0 0 M0 5.57 C0 3.44, 0 1.31, 0 0" stroke="#0091e2" stroke-width="2" fill="none"></path></g><g stroke-linecap="round" transform="translate(312.6737480759573 46.001571487356955) rotate(0 2.783176247165045 2.7831762471650165)"><path d="M0 0 L5.57 0 L5.57 5.57 L0 5.57" stroke="none" stroke-width="0" fill="#0091e2"></path><path d="M0 0 C1.32 0, 2.63 0, 5.57 0 M0 0 C1.79 0, 3.58 0, 5.57 0 M5.57 0 C5.57 1.16, 5.57 2.32, 5.57 5.57 M5.57 0 C5.57 1.7, 5.57 3.39, 5.57 5.57 M5.57 5.57 C3.96 5.57, 2.35 5.57, 0 5.57 M5.57 5.57 C3.78 5.57, 1.99 5.57, 0 5.57 M0 5.57 C0 4.06, 0 2.55, 0 0 M0 5.57 C0 3.79, 0 2.01, 0 0" stroke="#0091e2" stroke-width="2" fill="none"></path></g><g stroke-linecap="round" transform="translate(319.56210140459575 46.09433896817279) rotate(0 2.783176247165045 2.7831762471650165)"><path d="M0 0 L5.57 0 L5.57 5.57 L0 5.57" stroke="none" stroke-width="0" fill="#0091e2"></path><path d="M0 0 C1.36 0, 2.71 0, 5.57 0 M0 0 C2.04 0, 4.08 0, 5.57 0 M5.57 0 C5.57 1.82, 5.57 3.65, 5.57 5.57 M5.57 0 C5.57 1.98, 5.57 3.97, 5.57 5.57 M5.57 5.57 C4.36 5.57, 3.16 5.57, 0 5.57 M5.57 5.57 C4.18 5.57, 2.79 5.57, 0 5.57 M0 5.57 C0 3.55, 0 1.53, 0 0 M0 5.57 C0 3.7, 0 1.83, 0 0" stroke="#0091e2" stroke-width="2" fill="none"></path></g><g stroke-linecap="round" transform="translate(297.9345194386549 39.48431143931623) rotate(0 2.783176247165045 2.7831762471650165)"><path d="M0 0 L5.57 0 L5.57 5.57 L0 5.57" stroke="none" stroke-width="0" fill="#0091e2"></path><path d="M0 0 C1.74 0, 3.49 0, 5.57 0 M0 0 C1.16 0, 2.32 0, 5.57 0 M5.57 0 C5.57 1.67, 5.57 3.34, 5.57 5.57 M5.57 0 C5.57 1.9, 5.57 3.79, 5.57 5.57 M5.57 5.57 C4.41 5.57, 3.25 5.57, 0 5.57 M5.57 5.57 C4.24 5.57, 2.91 5.57, 0 5.57 M0 5.57 C0 3.35, 0 1.13, 0 0 M0 5.57 C0 3.67, 0 1.78, 0 0" stroke="#0091e2" stroke-width="2" fill="none"></path></g><g stroke-linecap="round" transform="translate(305.2403536811887 39.57708281301791) rotate(0 2.783176247165045 2.7831762471650165)"><path d="M0 0 L5.57 0 L5.57 5.57 L0 5.57" stroke="none" stroke-width="0" fill="#0091e2"></path><path d="M0 0 C2.1 0, 4.2 0, 5.57 0 M0 0 C2.17 0, 4.34 0, 5.57 0 M5.57 0 C5.57 1.29, 5.57 2.58, 5.57 5.57 M5.57 0 C5.57 1.5, 5.57 3, 5.57 5.57 M5.57 5.57 C3.98 5.57, 2.39 5.57, 0 5.57 M5.57 5.57 C3.46 5.57, 1.34 5.57, 0 5.57 M0 5.57 C0 3.59, 0 1.62, 0 0 M0 5.57 C0 4.41, 0 3.25, 0 0" stroke="#0091e2" stroke-width="2" fill="none"></path></g><g stroke-linecap="round" transform="translate(312.63895929742716 39.57707502725009) rotate(0 2.783176247165045 2.7831762471650165)"><path d="M0 0 L5.57 0 L5.57 5.57 L0 5.57" stroke="none" stroke-width="0" fill="#0091e2"></path><path d="M0 0 C1.25 0, 2.51 0, 5.57 0 M0 0 C1.79 0, 3.58 0, 5.57 0 M5.57 0 C5.57 1.72, 5.57 3.44, 5.57 5.57 M5.57 0 C5.57 1.38, 5.57 2.75, 5.57 5.57 M5.57 5.57 C4.05 5.57, 2.54 5.57, 0 5.57 M5.57 5.57 C3.44 5.57, 1.32 5.57, 0 5.57 M0 5.57 C0 4.28, 0 2.99, 0 0 M0 5.57 C0 4.09, 0 2.61, 0 0" stroke="#0091e2" stroke-width="2" fill="none"></path></g><g stroke-linecap="round" transform="translate(312.39542227617926 32.479981241665996) rotate(0 2.783176247165045 2.7831762471650165)"><path d="M0 0 L5.57 0 L5.57 5.57 L0 5.57" stroke="none" stroke-width="0" fill="#0091e2"></path><path d="M0 0 C2.09 0, 4.18 0, 5.57 0 M0 0 C2.02 0, 4.04 0, 5.57 0 M5.57 0 C5.57 2.05, 5.57 4.1, 5.57 5.57 M5.57 0 C5.57 1.44, 5.57 2.88, 5.57 5.57 M5.57 5.57 C4.11 5.57, 2.65 5.57, 0 5.57 M5.57 5.57 C4.1 5.57, 2.64 5.57, 0 5.57 M0 5.57 C0 4.33, 0 3.08, 0 0 M0 5.57 C0 4.05, 0 2.54, 0 0" stroke="#0091e2" stroke-width="2" fill="none"></path></g><g transform="translate(281.04680094632545 88.73117609157373) rotate(0 44.16666793823242 25)"><text x="0" y="0" font-family="Virgil, Segoe UI Emoji" font-size="20px" fill="#000000" text-anchor="start" style="white-space: pre;" direction="ltr" dominant-baseline="text-before-edge">Docker</text><text x="0" y="25" font-family="Virgil, Segoe UI Emoji" font-size="20px" fill="#000000" text-anchor="start" style="white-space: pre;" direction="ltr" dominant-baseline="text-before-edge">container</text></g><g stroke-linecap="round"><g transform="translate(312.788252548929 151.1890049624762) rotate(0 0.43105415239347167 134.8378006227022)"><path d="M0.88 -0.55 C1.09 44.18, 0.93 223.89, 0.88 269.12 M-0.12 1.78 C0.05 46.57, 0.35 225.69, 0.4 270.22" stroke="#1e1e1e" stroke-width="1" fill="none"></path></g></g><mask></mask><g transform="translate(27.024137972004382 27.21134294602581) rotate(0 118.74166870117188 198.41163434960453)"><text x="0" y="0" font-family="Virgil, Segoe UI Emoji" font-size="17.636589719964846px" fill="#0091e2" text-anchor="start" style="white-space: pre;" direction="ltr" dominant-baseline="text-before-edge">LRS2 packages</text><text x="0" y="22.045737149956057" font-family="Virgil, Segoe UI Emoji" font-size="17.636589719964846px" fill="#0091e2" text-anchor="start" style="white-space: pre;" direction="ltr" dominant-baseline="text-before-edge"></text><text x="0" y="44.091474299912115" font-family="Virgil, Segoe UI Emoji" font-size="17.636589719964846px" fill="#0091e2" text-anchor="start" style="white-space: pre;" direction="ltr" dominant-baseline="text-before-edge">- geographic_msgs</text><text x="0" y="66.13721144986818" font-family="Virgil, Segoe UI Emoji" font-size="17.636589719964846px" fill="#0091e2" text-anchor="start" style="white-space: pre;" direction="ltr" dominant-baseline="text-before-edge">- lrs_ardupilot</text><text x="0" y="88.18294859982423" font-family="Virgil, Segoe UI Emoji" font-size="17.636589719964846px" fill="#0091e2" text-anchor="start" style="white-space: pre;" direction="ltr" dominant-baseline="text-before-edge">- lrs_doc</text><text x="0" y="110.22868574978028" font-family="Virgil, Segoe UI Emoji" font-size="17.636589719964846px" fill="#0091e2" text-anchor="start" style="white-space: pre;" direction="ltr" dominant-baseline="text-before-edge">- lrs_exec</text><text x="0" y="132.27442289973635" font-family="Virgil, Segoe UI Emoji" font-size="17.636589719964846px" fill="#0091e2" text-anchor="start" style="white-space: pre;" direction="ltr" dominant-baseline="text-before-edge">- lrs_m100_msgs</text><text x="0" y="154.3201600496924" font-family="Virgil, Segoe UI Emoji" font-size="17.636589719964846px" fill="#0091e2" text-anchor="start" style="white-space: pre;" direction="ltr" dominant-baseline="text-before-edge">- lrs_msgs_common</text><text x="0" y="176.36589719964846" font-family="Virgil, Segoe UI Emoji" font-size="17.636589719964846px" fill="#0091e2" text-anchor="start" style="white-space: pre;" direction="ltr" dominant-baseline="text-before-edge">- lrs_msgs_tst</text><text x="0" y="198.41163434960453" font-family="Virgil, Segoe UI Emoji" font-size="17.636589719964846px" fill="#0091e2" text-anchor="start" style="white-space: pre;" direction="ltr" dominant-baseline="text-before-edge">- lrs_plansys2</text><text x="0" y="220.45737149956057" font-family="Virgil, Segoe UI Emoji" font-size="17.636589719964846px" fill="#0091e2" text-anchor="start" style="white-space: pre;" direction="ltr" dominant-baseline="text-before-edge">- lrs_srvs_exec</text><text x="0" y="242.50310864951663" font-family="Virgil, Segoe UI Emoji" font-size="17.636589719964846px" fill="#0091e2" text-anchor="start" style="white-space: pre;" direction="ltr" dominant-baseline="text-before-edge">- lrs_srvs_ra</text><text x="0" y="264.5488457994727" font-family="Virgil, Segoe UI Emoji" font-size="17.636589719964846px" fill="#0091e2" text-anchor="start" style="white-space: pre;" direction="ltr" dominant-baseline="text-before-edge">- lrs_srvs_tst</text><text x="0" y="286.59458294942874" font-family="Virgil, Segoe UI Emoji" font-size="17.636589719964846px" fill="#0091e2" text-anchor="start" style="white-space: pre;" direction="ltr" dominant-baseline="text-before-edge">- lrs_srvs_wdb</text><text x="0" y="308.6403200993848" font-family="Virgil, Segoe UI Emoji" font-size="17.636589719964846px" fill="#0091e2" text-anchor="start" style="white-space: pre;" direction="ltr" dominant-baseline="text-before-edge">- lrs_turtle</text><text x="0" y="330.6860572493409" font-family="Virgil, Segoe UI Emoji" font-size="17.636589719964846px" fill="#0091e2" text-anchor="start" style="white-space: pre;" direction="ltr" dominant-baseline="text-before-edge">- lrs_util</text><text x="0" y="352.7317943992969" font-family="Virgil, Segoe UI Emoji" font-size="17.636589719964846px" fill="#0091e2" text-anchor="start" style="white-space: pre;" direction="ltr" dominant-baseline="text-before-edge">- lrs_wdb</text><text x="0" y="374.77753154925296" font-family="Virgil, Segoe UI Emoji" font-size="17.636589719964846px" fill="#0091e2" text-anchor="start" style="white-space: pre;" direction="ltr" dominant-baseline="text-before-edge">- ros2_dji_osdk_ros_msgs</text></g><g transform="translate(395.17526600214217 27.974792917604418) rotate(0 100.64167022705078 53.80377820228418)"><text x="201.28334045410156" y="0" font-family="Virgil, Segoe UI Emoji" font-size="17.217209024730934px" fill="#2f9e44" text-anchor="end" style="white-space: pre;" direction="ltr" dominant-baseline="text-before-edge">CONCEPTIO packages</text><text x="201.28334045410156" y="21.521511280913668" font-family="Virgil, Segoe UI Emoji" font-size="17.217209024730934px" fill="#2f9e44" text-anchor="end" style="white-space: pre;" direction="ltr" dominant-baseline="text-before-edge"></text><text x="201.28334045410156" y="43.043022561827335" font-family="Virgil, Segoe UI Emoji" font-size="17.217209024730934px" fill="#2f9e44" text-anchor="end" style="white-space: pre;" direction="ltr" dominant-baseline="text-before-edge">rosbridge_suite (fork) -</text><text x="201.28334045410156" y="64.564533842741" font-family="Virgil, Segoe UI Emoji" font-size="17.217209024730934px" fill="#2f9e44" text-anchor="end" style="white-space: pre;" direction="ltr" dominant-baseline="text-before-edge"> -</text><text x="201.28334045410156" y="86.08604512365467" font-family="Virgil, Segoe UI Emoji" font-size="17.217209024730934px" fill="#2f9e44" text-anchor="end" style="white-space: pre;" direction="ltr" dominant-baseline="text-before-edge"></text></g></svg>